#Comment line ignore any data following # character 
#Hierarchical Translation and Rotation (.htr) file 
[Header]	
#Header keywords are followed by a single value 
FileType HTR		#Single word string
DataType HTRS		#Translation followed by rotation and scale data
FileVersion 1		#integer
NumSegments 84		#integer
NumFrames 2		#integer
DataFrameRate 30		#integer, data frame rate in this file
EulerRotationOrder ZYX
CalibrationUnits mm
RotationUnits Degrees
GlobalAxisofGravity Y
BoneLengthAxis Y
ScaleFactor 1.00
[SegmentNames&Hierarchy]
#CHILD	PARENT
MASTER GLOBAL
root MASTER
chest root
L_mid_tent01 root
R_mid_tent01 root
spine01 root
Bip01_Neck chest
L_humerus chest
R_humerus chest
weapon_bone chest
Bip01_Head Bip01_Neck
eye_left_bone Bip01_Head
eye_right_bone Bip01_Head
L_forearm L_humerus
L_front_hand L_forearm
L_weapon_bone L_forearm
L_front_hand01_01 L_front_hand
L_front_hand02_01 L_front_hand
L_front_hand03_01 L_front_hand
L_front_hand01_02 L_front_hand01_01
L_front_hand02_02 L_front_hand02_01
L_front_hand03_02 L_front_hand03_01
R_forearm R_humerus
R_front_hand R_forearm
R_weapon_bone R_forearm
R_front_hand01_01 R_front_hand
R_front_hand02_01 R_front_hand
R_front_hand03_01 R_front_hand
R_front_hand01_02 R_front_hand01_01
R_front_hand02_02 R_front_hand02_01
R_front_hand03_02 R_front_hand03_01
null_rope01_connect L_mid_tent01
Rope1_Seg01 null_rope01_connect
Rope1_Seg02 Rope1_Seg01
Rope1_Seg03 Rope1_Seg02
Rope1_Seg04 Rope1_Seg03
Rope1_Seg05 Rope1_Seg04
Rope1_Seg06 Rope1_Seg05
Rope1_Seg07 Rope1_Seg06
Rope1_Seg09 Rope1_Seg07
L_mid_hand01 Rope1_Seg09
L_mid_hand02 Rope1_Seg09
L_mid_hand03 Rope1_Seg09
null_rope02_connect R_mid_tent01
Rope2_Seg01 null_rope02_connect
Rope2_Seg02 Rope2_Seg01
Rope2_Seg03 Rope2_Seg02
Rope2_Seg04 Rope2_Seg03
Rope2_Seg05 Rope2_Seg04
Rope2_Seg06 Rope2_Seg05
Rope2_Seg07 Rope2_Seg06
Rope2_Seg09 Rope2_Seg07
R_mid_hand01 Rope2_Seg09
R_mid_hand02 Rope2_Seg09
R_mid_hand03 Rope2_Seg09
spine02 spine01
spine03 spine02
pelvis spine03
null_rope03_connect pelvis
null_rope04_connect pelvis
Rope3_Seg01 null_rope03_connect
Rope3_Seg02 Rope3_Seg01
Rope3_Seg03 Rope3_Seg02
Rope3_Seg04 Rope3_Seg03
Rope3_Seg05 Rope3_Seg04
Rope3_Seg06 Rope3_Seg05
Rope3_Seg07 Rope3_Seg06
Rope3_Seg08 Rope3_Seg07
Rope3_Seg09 Rope3_Seg08
R_rear_hand01 Rope3_Seg09
R_rear_hand02 Rope3_Seg09
R_rear_hand03 Rope3_Seg09
Rope4_Seg01 null_rope04_connect
Rope4_Seg02 Rope4_Seg01
Rope4_Seg03 Rope4_Seg02
Rope4_Seg04 Rope4_Seg03
Rope4_Seg05 Rope4_Seg04
Rope4_Seg06 Rope4_Seg05
Rope4_Seg07 Rope4_Seg06
Rope4_Seg08 Rope4_Seg07
Rope4_Seg09 Rope4_Seg08
L_rear_hand01 Rope4_Seg09
L_rear_hand02 Rope4_Seg09
L_rear_hand03 Rope4_Seg09
[BasePosition]
#SegmentName Tx, Ty, Tz, Rx, Ry, Rz, BoneLength
MASTER 0.000000 0.000000 0.000000 -90.000000 0.000000 0.000000 10.000000 
root 0.000000 0.000000 0.000000 0.000000 0.000000 0.000000 10.000000 
chest 0.000000 0.000000 0.000000 0.000000 0.000000 0.000000 10.000000 
L_mid_tent01 0.000000 0.000000 0.000000 0.000000 0.000000 0.000000 10.000000 
R_mid_tent01 0.000000 0.000000 0.000000 0.000000 0.000000 0.000000 10.000000 
spine01 0.000000 0.000000 0.000000 0.000000 0.000000 0.000000 10.000000 
Bip01_Neck 0.000000 0.000000 0.000000 0.000000 0.000000 0.000000 10.000000 
L_humerus 0.000000 0.000000 0.000000 0.000000 0.000000 0.000000 10.000000 
R_humerus 0.000000 0.000000 0.000000 0.000000 0.000000 0.000000 10.000000 
weapon_bone 0.000000 0.000000 0.000000 0.000000 0.000000 0.000000 10.000000 
Bip01_Head 0.000000 0.000000 0.000000 0.000000 0.000000 0.000000 10.000000 
eye_left_bone 0.000000 0.000000 0.000000 0.000000 0.000000 0.000000 10.000000 
eye_right_bone 0.000000 0.000000 0.000000 0.000000 0.000000 0.000000 10.000000 
L_forearm 0.000000 0.000000 0.000000 0.000000 0.000000 0.000000 10.000000 
L_front_hand 0.000000 0.000000 0.000000 0.000000 0.000000 0.000000 10.000000 
L_weapon_bone 0.000000 0.000000 0.000000 0.000000 0.000000 0.000000 10.000000 
L_front_hand01_01 0.000000 0.000000 0.000000 0.000000 0.000000 0.000000 10.000000 
L_front_hand02_01 0.000000 0.000000 0.000000 0.000000 0.000000 0.000000 10.000000 
L_front_hand03_01 0.000000 0.000000 0.000000 0.000000 0.000000 0.000000 10.000000 
L_front_hand01_02 0.000000 0.000000 0.000000 0.000000 0.000000 0.000000 10.000000 
L_front_hand02_02 0.000000 0.000000 0.000000 0.000000 0.000000 0.000000 10.000000 
L_front_hand03_02 0.000000 0.000000 0.000000 0.000000 0.000000 0.000000 10.000000 
R_forearm 0.000000 0.000000 0.000000 0.000000 0.000000 0.000000 10.000000 
R_front_hand 0.000000 0.000000 0.000000 0.000000 0.000000 0.000000 10.000000 
R_weapon_bone 0.000000 0.000000 0.000000 0.000000 0.000000 0.000000 10.000000 
R_front_hand01_01 0.000000 0.000000 0.000000 0.000000 0.000000 0.000000 10.000000 
R_front_hand02_01 0.000000 0.000000 0.000000 0.000000 0.000000 0.000000 10.000000 
R_front_hand03_01 0.000000 0.000000 0.000000 0.000000 0.000000 0.000000 10.000000 
R_front_hand01_02 0.000000 0.000000 0.000000 0.000000 0.000000 0.000000 10.000000 
R_front_hand02_02 0.000000 0.000000 0.000000 0.000000 0.000000 0.000000 10.000000 
R_front_hand03_02 0.000000 0.000000 0.000000 0.000000 0.000000 0.000000 10.000000 
null_rope01_connect 0.000000 0.000000 0.000000 0.000000 0.000000 0.000000 10.000000 
Rope1_Seg01 0.000000 0.000000 0.000000 0.000000 0.000000 0.000000 10.000000 
Rope1_Seg02 0.000000 0.000000 0.000000 0.000000 0.000000 0.000000 10.000000 
Rope1_Seg03 0.000000 0.000000 0.000000 0.000000 0.000000 0.000000 10.000000 
Rope1_Seg04 0.000000 0.000000 0.000000 0.000000 0.000000 0.000000 10.000000 
Rope1_Seg05 0.000000 0.000000 0.000000 0.000000 0.000000 0.000000 10.000000 
Rope1_Seg06 0.000000 0.000000 0.000000 0.000000 0.000000 0.000000 10.000000 
Rope1_Seg07 0.000000 0.000000 0.000000 0.000000 0.000000 0.000000 10.000000 
Rope1_Seg09 0.000000 0.000000 0.000000 0.000000 0.000000 0.000000 10.000000 
L_mid_hand01 0.000000 0.000000 0.000000 0.000000 0.000000 0.000000 10.000000 
L_mid_hand02 0.000000 0.000000 0.000000 0.000000 0.000000 0.000000 10.000000 
L_mid_hand03 0.000000 0.000000 0.000000 0.000000 0.000000 0.000000 10.000000 
null_rope02_connect 0.000000 0.000000 0.000000 0.000000 0.000000 0.000000 10.000000 
Rope2_Seg01 0.000000 0.000000 0.000000 0.000000 0.000000 0.000000 10.000000 
Rope2_Seg02 0.000000 0.000000 0.000000 0.000000 0.000000 0.000000 10.000000 
Rope2_Seg03 0.000000 0.000000 0.000000 0.000000 0.000000 0.000000 10.000000 
Rope2_Seg04 0.000000 0.000000 0.000000 0.000000 0.000000 0.000000 10.000000 
Rope2_Seg05 0.000000 0.000000 0.000000 0.000000 0.000000 0.000000 10.000000 
Rope2_Seg06 0.000000 0.000000 0.000000 0.000000 0.000000 0.000000 10.000000 
Rope2_Seg07 0.000000 0.000000 0.000000 0.000000 0.000000 0.000000 10.000000 
Rope2_Seg09 0.000000 0.000000 0.000000 0.000000 0.000000 0.000000 10.000000 
R_mid_hand01 0.000000 0.000000 0.000000 0.000000 0.000000 0.000000 10.000000 
R_mid_hand02 0.000000 0.000000 0.000000 0.000000 0.000000 0.000000 10.000000 
R_mid_hand03 0.000000 0.000000 0.000000 0.000000 0.000000 0.000000 10.000000 
spine02 0.000000 0.000000 0.000000 0.000000 0.000000 0.000000 10.000000 
spine03 0.000000 0.000000 0.000000 0.000000 0.000000 0.000000 10.000000 
pelvis 0.000000 0.000000 0.000000 0.000000 0.000000 0.000000 10.000000 
null_rope03_connect 0.000000 0.000000 0.000000 0.000000 0.000000 0.000000 10.000000 
null_rope04_connect 0.000000 0.000000 0.000000 0.000000 0.000000 0.000000 10.000000 
Rope3_Seg01 0.000000 0.000000 0.000000 0.000000 0.000000 0.000000 10.000000 
Rope3_Seg02 0.000000 0.000000 0.000000 0.000000 0.000000 0.000000 10.000000 
Rope3_Seg03 0.000000 0.000000 0.000000 0.000000 0.000000 0.000000 10.000000 
Rope3_Seg04 0.000000 0.000000 0.000000 0.000000 0.000000 0.000000 10.000000 
Rope3_Seg05 0.000000 0.000000 0.000000 0.000000 0.000000 0.000000 10.000000 
Rope3_Seg06 0.000000 0.000000 0.000000 0.000000 0.000000 0.000000 10.000000 
Rope3_Seg07 0.000000 0.000000 0.000000 0.000000 0.000000 0.000000 10.000000 
Rope3_Seg08 0.000000 0.000000 0.000000 0.000000 0.000000 0.000000 10.000000 
Rope3_Seg09 0.000000 0.000000 0.000000 0.000000 0.000000 0.000000 10.000000 
R_rear_hand01 0.000000 0.000000 0.000000 0.000000 0.000000 0.000000 10.000000 
R_rear_hand02 0.000000 0.000000 0.000000 0.000000 0.000000 0.000000 10.000000 
R_rear_hand03 0.000000 0.000000 0.000000 0.000000 0.000000 0.000000 10.000000 
Rope4_Seg01 0.000000 0.000000 0.000000 0.000000 0.000000 0.000000 10.000000 
Rope4_Seg02 0.000000 0.000000 0.000000 0.000000 0.000000 0.000000 10.000000 
Rope4_Seg03 0.000000 0.000000 0.000000 0.000000 0.000000 0.000000 10.000000 
Rope4_Seg04 0.000000 0.000000 0.000000 0.000000 0.000000 0.000000 10.000000 
Rope4_Seg05 0.000000 0.000000 0.000000 0.000000 0.000000 0.000000 10.000000 
Rope4_Seg06 0.000000 0.000000 0.000000 0.000000 0.000000 0.000000 10.000000 
Rope4_Seg07 0.000000 0.000000 0.000000 0.000000 0.000000 0.000000 10.000000 
Rope4_Seg08 0.000000 0.000000 0.000000 0.000000 0.000000 0.000000 10.000000 
Rope4_Seg09 0.000000 0.000000 0.000000 0.000000 0.000000 0.000000 10.000000 
L_rear_hand01 0.000000 0.000000 0.000000 0.000000 0.000000 0.000000 10.000000 
L_rear_hand02 0.000000 0.000000 0.000000 0.000000 0.000000 0.000000 10.000000 
L_rear_hand03 0.000000 0.000000 0.000000 0.000000 0.000000 0.000000 10.000000 
#Beginning of Data. Separated by tabs
#Fr	Tx	Ty	Tz	Rx	Ry	Rz	SF
[MASTER]
24 -0.000580 3859.964844 -1750.151978 0.001660 0.001660 0.001660 4238.202637
25 -0.000590 3922.969971 -1901.076538 0.001660 0.001660 0.001660 4359.333008
[root]
24 43.988422 -51.398621 304.501648 -106.948792 -22.474300 -90.764107 311.926361
25 37.946903 -74.322914 337.883270 -106.613083 -22.118631 -90.851204 348.035858
[chest]
24 -84.512650 -34.090519 0.000000 4.253396 -0.356609 -174.316132 91.129311
25 -84.512650 -34.090519 0.000000 4.156156 -0.329891 -174.780777 91.129311
[L_mid_tent01]
24 27.299343 22.177622 -249.918289 -1.387457 26.969727 67.539635 252.381165
25 27.299337 22.177628 -249.918289 -1.295049 27.775221 67.580482 252.381165
[R_mid_tent01]
24 23.228794 24.509907 226.238495 172.965881 -23.503592 57.670807 228.744751
25 23.228794 24.509907 226.238495 172.460602 -23.687609 58.873390 228.744751
[spine01]
24 -0.361383 -0.195265 0.000000 0.001845 0.001451 13.654368 0.410763
25 -0.361383 -0.195265 0.000000 0.001845 0.001451 13.654368 0.410763
[Bip01_Neck]
24 165.484543 71.581718 0.000119 176.643677 -1.657967 43.431911 180.302734
25 165.484543 71.581718 0.000119 176.643677 -1.657967 43.431911 180.302734
[L_humerus]
24 -13.983130 -135.272980 -120.471481 119.601547 81.004227 -149.674957 181.680161
25 -13.983130 -135.272980 -120.471481 128.845047 79.943100 -140.301865 181.680161
[R_humerus]
24 -13.983309 -135.273102 125.287651 -173.584625 -62.220249 -91.225075 184.909012
25 -13.983309 -135.273102 125.287651 -174.825195 -54.792629 -89.774200 184.909012
[weapon_bone]
24 235.964890 -300.705902 0.000000 0.000000 -89.951546 -128.212341 382.234833
25 235.964890 -300.705902 0.000000 0.000000 -89.951546 -128.212341 382.234833
[Bip01_Head]
24 213.477936 185.623016 12.973689 4.440358 -0.902637 -43.900562 283.190857
25 213.431702 185.752258 11.306299 4.439760 -0.689332 -43.902359 283.169250
[eye_left_bone]
24 -24.626970 125.451866 -64.772606 0.000000 -90.000000 -99.840431 143.318359
25 -24.626970 125.451866 -64.772606 0.000000 -90.000000 -99.840431 143.318359
[eye_right_bone]
24 -24.626970 125.451866 64.327362 0.000000 -89.965736 80.156380 143.117676
25 -24.626970 125.451866 64.327362 0.000000 -89.965736 80.156380 143.117676
[L_forearm]
24 322.776093 0.000000 -0.000119 0.000119 -0.002344 -95.807457 322.776093
25 322.776093 0.000000 -0.000119 0.000119 -0.002344 -95.807457 322.776093
[L_front_hand]
24 241.149185 -0.042021 -3.300071 -178.667953 -1.835447 -27.422350 241.171753
25 241.149185 -0.042021 -3.300071 -178.667953 -1.835447 -27.422342 241.171753
[L_weapon_bone]
24 156.183838 0.000000 0.000000 0.000014 0.000007 0.000001 156.183838
25 156.183838 0.000000 0.000000 0.000014 0.000007 0.000001 156.183838
[L_front_hand01_01]
24 86.095154 20.947098 -0.655860 -0.343298 -0.494452 72.684830 88.609184
25 86.095154 20.947098 -0.655860 -0.351864 -0.488251 73.756912 88.609184
[L_front_hand02_01]
24 86.935165 -11.437475 24.513514 150.381821 -58.634853 -56.693264 91.046425
25 86.935165 -11.437475 24.513514 151.937759 -59.151104 -58.507717 91.046425
[L_front_hand03_01]
24 86.637497 -14.123976 -20.424902 -150.184570 56.852535 -58.280544 90.126129
25 86.637497 -14.123976 -20.424902 -151.626480 57.374607 -59.999687 90.126129
[L_front_hand01_02]
24 71.020905 -0.000179 0.000030 0.000323 -0.002325 -105.838135 71.020905
25 71.020905 -0.000179 0.000030 0.000325 -0.002325 -105.934158 71.020905
[L_front_hand02_02]
24 71.020927 -0.000119 0.000060 0.000323 -0.002325 -105.838135 71.020927
25 71.020927 -0.000119 0.000060 0.000325 -0.002325 -105.934158 71.020927
[L_front_hand03_02]
24 71.020905 -0.000060 0.000060 0.000323 -0.002325 -105.838135 71.020905
25 71.020905 -0.000060 0.000060 0.000325 -0.002325 -105.934158 71.020905
[R_forearm]
24 322.776428 -0.000060 0.000030 0.209504 0.012586 -94.339050 322.776428
25 322.776428 -0.000060 0.000030 0.209504 0.012586 -94.339050 322.776428
[R_front_hand]
24 238.847015 -0.006795 2.210259 -2.635298 -10.645461 -26.312506 238.857239
25 238.847015 -0.006795 2.210259 -2.635298 -10.645461 -26.312506 238.857239
[R_weapon_bone]
24 155.664093 0.002503 -0.000030 0.003487 0.001180 -90.988930 155.664078
25 155.664093 0.002503 -0.000030 0.003487 0.001180 -90.988930 155.664078
[R_front_hand01_01]
24 87.624611 14.231146 22.918642 -154.633499 -59.950619 61.746044 91.683487
25 87.624611 14.231146 22.918642 -154.633499 -59.950619 61.746044 91.683487
[R_front_hand02_01]
24 89.356956 14.367283 -19.491137 154.602661 58.302849 63.744389 92.579636
25 89.356956 14.367283 -19.491137 154.602661 58.302849 63.744389 92.579636
[R_front_hand03_01]
24 87.286232 -22.307278 -0.143439 0.162155 -0.423168 -75.767921 90.091743
25 87.286232 -22.307278 -0.143439 0.162155 -0.423168 -75.767921 90.091743
[R_front_hand01_02]
24 71.020905 0.000060 0.000119 0.002323 -0.000334 106.381714 71.020905
25 71.020905 0.000060 0.000119 0.002323 -0.000334 106.381714 71.020905
[R_front_hand02_02]
24 71.020844 -0.000030 -0.000119 0.002323 -0.000334 106.381714 71.020836
25 71.020844 -0.000030 -0.000119 0.002323 -0.000334 106.381714 71.020836
[R_front_hand03_02]
24 71.020905 0.000000 0.000030 0.002323 -0.000334 106.381714 71.020905
25 71.020905 0.000000 0.000030 0.002323 -0.000334 106.381714 71.020905
[null_rope01_connect]
24 328.732483 0.000000 -0.000238 -144.170181 -46.227776 -170.067642 328.732483
25 328.732483 0.000000 -0.000238 -144.070557 -45.729660 -170.553192 328.732483
[Rope1_Seg01]
24 0.000000 0.000000 0.000000 72.660042 -50.838402 -146.516769 0.000000
25 0.000000 0.000000 0.000000 72.420166 -49.775517 -146.143600 0.000000
[Rope1_Seg02]
24 139.999863 -0.000179 0.000000 1.565622 -3.180685 -6.001951 139.999863
25 139.999863 -0.000179 0.000000 1.804597 -3.396721 -6.314789 139.999863
[Rope1_Seg03]
24 139.999924 0.000060 -0.000060 6.808150 -9.320168 -16.948822 139.999924
25 139.999924 0.000060 -0.000060 8.453366 -10.611651 -19.050461 139.999924
[Rope1_Seg04]
24 139.999924 -0.000060 -0.000119 46.106430 -27.607475 -62.851681 139.999924
25 139.999924 -0.000060 -0.000119 48.861633 -29.511301 -64.353760 139.999924
[Rope1_Seg05]
24 139.999832 0.000119 -0.000060 10.056221 -26.856264 -9.692253 139.999832
25 139.999832 0.000119 -0.000060 7.028693 -24.802105 -5.635254 139.999832
[Rope1_Seg06]
24 139.999954 0.000119 -0.000060 -0.940336 -14.024687 8.981194 139.999954
25 139.999954 0.000119 -0.000060 -1.133705 -14.189694 9.023350 139.999954
[Rope1_Seg07]
24 139.999985 0.000060 0.000000 -1.513034 -11.141082 3.245669 139.999985
25 139.999985 0.000060 0.000000 -1.631534 -10.535609 2.894240 139.999985
[Rope1_Seg09]
24 121.602913 0.000119 -0.000089 -89.793175 -1.359789 0.847147 121.602913
25 121.602913 0.000119 -0.000089 -89.793175 -1.359789 0.847147 121.602913
[L_mid_hand01]
24 103.859421 1.038730 8.195221 119.055542 -59.298035 -26.066490 104.187431
25 103.859421 1.038730 8.195221 121.913704 -62.028732 -29.342178 104.187431
[L_mid_hand02]
24 105.572853 -4.139662 -10.864139 -160.167084 40.723114 -60.466171 106.211075
25 105.572853 -4.139662 -10.864139 -162.798126 41.730762 -64.459190 106.211075
[L_mid_hand03]
24 104.641464 17.579376 -3.913581 -9.090188 16.486177 64.488457 106.179977
25 104.641464 17.579376 -3.913581 -8.147993 16.962013 67.754318 106.179977
[null_rope02_connect]
24 328.732849 0.000179 -0.000119 -65.100670 72.323433 61.439213 328.732849
25 328.732849 0.000179 -0.000119 -67.295082 72.231705 60.659943 328.732849
[Rope2_Seg01]
24 0.000057 0.000075 0.000078 170.327454 31.149796 -51.059887 0.000122
25 0.000056 0.000071 0.000081 162.790833 32.299961 -54.518932 0.000122
[Rope2_Seg02]
24 139.999741 -0.000060 -0.000119 35.929733 -11.529580 -11.159039 139.999756
25 139.999741 -0.000060 -0.000119 40.898983 -10.990746 -15.232079 139.999756
[Rope2_Seg03]
24 140.000107 0.000030 0.000000 5.413539 -5.954019 -0.701501 140.000107
25 140.000107 0.000030 0.000000 8.402728 -6.617016 -2.735268 140.000107
[Rope2_Seg04]
24 139.999802 0.000000 -0.000060 10.203314 -21.049700 -1.499888 139.999802
25 139.999802 0.000000 -0.000060 11.159385 -31.474300 -1.572758 139.999802
[Rope2_Seg05]
24 139.999985 -0.000060 0.000119 -0.984207 -57.191067 8.859905 139.999985
25 139.999985 -0.000060 0.000119 -4.585049 -50.022266 11.095881 139.999985
[Rope2_Seg06]
24 139.999893 -0.000030 -0.000119 -2.865480 -18.169237 3.170646 139.999893
25 139.999893 -0.000030 -0.000119 -2.184207 -12.738405 2.146920 139.999893
[Rope2_Seg07]
24 139.999893 0.000060 -0.000060 -1.607738 -6.628174 0.842896 139.999893
25 139.999893 0.000060 -0.000060 -1.350569 -5.536557 0.725561 139.999893
[Rope2_Seg09]
24 121.338966 0.000089 -0.000060 33.793236 -1.359788 -0.847141 121.338966
25 121.338966 0.000089 -0.000060 33.793236 -1.359788 -0.847141 121.338966
[R_mid_hand01]
24 104.680779 11.144459 -10.335981 -34.395393 34.968513 42.666153 105.778534
25 104.680779 11.144459 -10.335981 -32.351303 36.833485 46.151863 105.778534
[R_mid_hand02]
24 104.070427 2.443552 8.231699 68.534225 -47.330887 16.661499 104.424065
25 104.070427 2.443552 8.231699 67.067345 -50.463909 18.609608 104.424065
[R_mid_hand03]
24 106.028137 -11.221827 -5.996406 -171.057114 13.096072 -52.505157 106.788818
25 106.028137 -11.221827 -5.996406 -171.852554 13.596701 -55.941738 106.788818
[spine02]
24 129.756927 0.001550 0.000119 -1.023899 -3.926965 6.770993 129.756927
25 129.756927 0.001550 0.000119 -1.023899 -3.926965 6.770993 129.756927
[spine03]
24 78.614166 0.087277 -4.898872 1.040680 4.146419 4.212375 78.766701
25 78.614182 0.087270 -4.898872 1.040680 4.146419 4.212375 78.766716
[pelvis]
24 169.435242 0.051022 0.000000 0.019518 -0.190233 -10.721436 169.435257
25 169.435242 0.051022 0.000000 0.019518 -0.190233 -10.721436 169.435257
[null_rope03_connect]
24 -1.257226 -2.466202 137.391083 -155.330856 -72.441811 -106.138268 137.418976
25 -1.257226 -2.466202 137.391083 -155.395004 -72.750092 -106.440102 137.418976
[null_rope04_connect]
24 -1.259640 -2.480268 -137.844437 -155.330856 -72.441811 -106.138268 137.872513
25 -1.259640 -2.480268 -137.844437 -155.395004 -72.750092 -106.440102 137.872513
[Rope3_Seg01]
24 -0.000009 -0.000349 -0.000153 -135.844620 -35.750072 -73.569809 0.000381
25 -0.000009 -0.000361 -0.000153 -134.739716 -34.900650 -75.275917 0.000392
[Rope3_Seg02]
24 139.999924 -0.000119 0.000060 10.137029 -23.584530 -36.446178 139.999924
25 139.999924 -0.000119 0.000060 10.274489 -23.943054 -37.983212 139.999924
[Rope3_Seg03]
24 139.999924 -0.000119 0.000119 3.926815 -6.016128 -5.791727 139.999924
25 139.999924 -0.000119 0.000119 3.020404 -5.874612 -6.522401 139.999924
[Rope3_Seg04]
24 139.999924 0.000119 0.000000 2.621112 -5.533582 -7.073039 139.999924
25 139.999924 0.000119 0.000000 2.772091 -5.755370 -7.419116 139.999924
[Rope3_Seg05]
24 139.999924 -0.000238 0.000060 168.396027 -14.812003 -20.224068 139.999924
25 139.999924 -0.000238 0.000060 168.674545 -16.205921 -21.353153 139.999924
[Rope3_Seg06]
24 139.999893 -0.000119 -0.000060 13.360125 13.524812 34.744141 139.999893
25 139.999893 -0.000119 -0.000060 12.172057 14.330029 34.903519 139.999893
[Rope3_Seg07]
24 139.999771 0.000060 -0.000119 1.736537 8.278007 13.223292 139.999771
25 139.999771 0.000060 -0.000119 1.726374 7.927118 12.885039 139.999771
[Rope3_Seg08]
24 139.999985 -0.000060 0.000000 0.818273 3.980611 6.095209 139.999985
25 139.999985 -0.000060 0.000000 0.814593 3.773877 5.870254 139.999985
[Rope3_Seg09]
24 90.185997 -0.000179 -0.000060 89.793228 -1.359877 -0.847183 90.185997
25 90.185997 -0.000179 -0.000060 89.793228 -1.359877 -0.847183 90.185997
[R_rear_hand01]
24 103.366196 -6.073594 -10.757982 -167.735992 21.565800 -48.800823 104.101845
25 103.366196 -6.073594 -10.757982 -169.183289 22.304335 -52.678284 104.101845
[R_rear_hand02]
24 100.509819 12.039542 -7.992327 -27.197794 28.737703 46.115391 101.543350
25 100.509819 12.039542 -7.992327 -25.326183 30.360588 49.900955 101.543350
[R_rear_hand03]
24 101.539970 5.215704 5.435467 81.295586 -49.108280 10.466788 101.819031
25 101.539970 5.215704 5.435467 80.575409 -52.733398 11.389215 101.819031
[Rope4_Seg01]
24 -0.000057 -0.000093 0.000000 44.942589 -22.580711 -88.708527 0.000109
25 -0.000056 -0.000089 0.000000 45.284554 -23.982834 -89.787712 0.000105
[Rope4_Seg02]
24 139.999985 0.000060 0.000119 0.140778 -38.517990 13.067896 139.999985
25 139.999985 0.000060 0.000119 1.022527 -38.144672 12.254064 139.999985
[Rope4_Seg03]
24 139.999924 0.000000 -0.000238 16.203234 -31.594154 15.042054 139.999924
25 139.999924 0.000000 -0.000238 16.506098 -30.617477 14.705652 139.999924
[Rope4_Seg04]
24 139.999985 0.000000 0.000119 14.221484 -11.645234 10.085303 139.999985
25 139.999985 0.000000 0.000119 14.994305 -12.158136 10.350580 139.999985
[Rope4_Seg05]
24 139.999802 -0.000060 -0.000119 22.796583 -13.508074 16.720751 139.999802
25 139.999802 -0.000060 -0.000119 25.193905 -14.768239 18.228180 139.999802
[Rope4_Seg06]
24 139.999924 0.000000 0.000060 20.436411 -5.921741 21.172777 139.999924
25 139.999924 0.000000 0.000060 20.354755 -5.056463 21.711735 139.999924
[Rope4_Seg07]
24 139.999802 0.000000 0.000000 6.616281 1.090012 9.443465 139.999802
25 139.999802 0.000000 0.000000 6.098848 1.453960 9.093152 139.999802
[Rope4_Seg08]
24 139.999924 0.000000 0.000119 1.323064 1.148068 4.898359 139.999924
25 139.999924 0.000000 0.000119 1.093681 1.273357 4.718991 139.999924
[Rope4_Seg09]
24 90.185791 0.000060 0.000060 -135.617828 2.228885 0.850567 90.185791
25 90.185791 0.000060 0.000060 -135.617828 2.228885 0.850567 90.185791
[L_rear_hand01]
24 101.696655 -8.392275 -7.654577 -19.499582 -34.171791 119.209068 102.329041
25 101.696655 -8.392275 -7.654577 -17.798241 -35.006115 116.214813 102.329041
[L_rear_hand02]
24 102.726799 -1.568258 5.773216 77.604713 62.517117 165.103577 102.900848
25 102.726799 -1.568258 5.773216 76.414978 65.052933 163.777969 102.900848
[L_rear_hand03]
24 104.552910 9.721220 -10.420293 -173.384857 -23.818932 -116.619865 105.519653
25 104.552910 9.721220 -10.420293 -174.535919 -24.090160 -113.787476 105.519653
